<?xml version="1.0" encoding="UTF-8" standalone="no"?>
<!-- Created with Inkscape (http://www.inkscape.org/) -->

<svg
   xmlns:dc="http://purl.org/dc/elements/1.1/"
   xmlns:cc="http://creativecommons.org/ns#"
   xmlns:rdf="http://www.w3.org/1999/02/22-rdf-syntax-ns#"
   xmlns:svg="http://www.w3.org/2000/svg"
   xmlns="http://www.w3.org/2000/svg"
   xmlns:sodipodi="http://sodipodi.sourceforge.net/DTD/sodipodi-0.dtd"
   xmlns:inkscape="http://www.inkscape.org/namespaces/inkscape"
   version="1.1"
   id="svg2"
   xml:space="preserve"
   width="1010"
   height="300"
   viewBox="0 0 1010 300"
   sodipodi:docname="logo.svg"
   inkscape:version="0.92.4 (5da689c313, 2019-01-14)"><metadata
     id="metadata8"><rdf:RDF><cc:Work
         rdf:about=""><dc:format>image/svg+xml</dc:format><dc:type
           rdf:resource="http://purl.org/dc/dcmitype/StillImage" /><dc:title></dc:title></cc:Work></rdf:RDF></metadata><defs
     id="defs6" /><sodipodi:namedview
     pagecolor="#ffffff"
     bordercolor="#666666"
     borderopacity="1"
     objecttolerance="10"
     gridtolerance="10"
     guidetolerance="10"
     inkscape:pageopacity="0"
     inkscape:pageshadow="2"
     inkscape:window-width="654"
     inkscape:window-height="480"
     id="namedview4"
     showgrid="false"
     inkscape:zoom="0.32376238"
     inkscape:cx="600.74924"
     inkscape:cy="150"
     inkscape:window-x="2498"
     inkscape:window-y="2439"
     inkscape:window-maximized="0"
     inkscape:current-layer="g10" /><g
     id="g10"
     inkscape:groupmode="layer"
     inkscape:label="esLogo"
     transform="matrix(1.3333333,0,0,1.3333333,0,7.5e-6)"><g
       id="g12"><path
         d="m 365.305,86.098 h -33.86 V 27.27 h 33.86 v 6.75 h -25.75 v 18.234 h 24.75 v 6.75 h -24.75 v 20.25 h 25.75 z"
         style="fill:#191970;fill-opacity:1;fill-rule:nonzero;stroke:none"
         id="path14"
         inkscape:connector-curvature="0" /><path
         d="M 413.371,86.098 H 402.84 L 390.496,68.863 378.277,86.098 h -10.25 L 385.762,63.41 368.855,40.91 h 10.157 L 391.043,58.285 402.84,40.91 h 9.797 l -17.172,22.688 z"
         style="fill:#191970;fill-opacity:1;fill-rule:nonzero;stroke:none"
         id="path16"
         inkscape:connector-curvature="0" /><path
         d="m 451.449,86.098 h -7.922 V 57.254 c 0,-3.477 -0.664,-6.082 -1.984,-7.813 -1.324,-1.726 -3.215,-2.593 -5.672,-2.593 -1.062,0 -2.058,0.148 -2.984,0.437 -0.93,0.281 -1.899,0.778 -2.907,1.485 -1,0.699 -2.093,1.652 -3.281,2.859 -1.179,1.199 -2.543,2.699 -4.094,4.5 v 29.969 h -7.921 V 22.504 h 7.921 V 40.91 l -0.265,7.11 c 1.238,-1.469 2.457,-2.704 3.656,-3.704 1.207,-1.007 2.41,-1.828 3.609,-2.453 1.196,-0.633 2.415,-1.086 3.657,-1.359 1.25,-0.27 2.539,-0.406 3.875,-0.406 4.562,0 8.086,1.375 10.578,4.125 2.488,2.742 3.734,6.871 3.734,12.39 z"
         style="fill:#191970;fill-opacity:1;fill-rule:nonzero;stroke:none"
         id="path18"
         inkscape:connector-curvature="0" /><path
         d="m 486.625,86.098 -0.187,-6.078 c -2.493,2.429 -5.024,4.183 -7.594,5.265 -2.563,1.082 -5.258,1.625 -8.078,1.625 -2.618,0 -4.852,-0.328 -6.703,-0.984 -1.856,-0.664 -3.383,-1.578 -4.579,-2.735 -1.199,-1.156 -2.078,-2.507 -2.64,-4.062 C 456.281,77.566 456,75.871 456,74.035 c 0,-4.531 1.707,-8.078 5.125,-10.64 3.414,-2.563 8.469,-3.844 15.156,-3.844 h 9.469 v -3.969 c 0,-2.664 -0.867,-4.801 -2.594,-6.406 -1.73,-1.602 -4.371,-2.406 -7.922,-2.406 -2.586,0 -5.132,0.289 -7.64,0.859 -2.5,0.562 -5.09,1.371 -7.766,2.422 v -7.063 c 1,-0.363 2.113,-0.718 3.344,-1.062 1.226,-0.344 2.523,-0.649 3.891,-0.922 1.375,-0.27 2.804,-0.488 4.296,-0.656 1.489,-0.164 2.989,-0.25 4.5,-0.25 2.77,0 5.266,0.304 7.485,0.906 2.219,0.594 4.094,1.512 5.625,2.75 1.531,1.23 2.707,2.777 3.531,4.641 0.82,1.855 1.234,4.043 1.234,6.562 V 86.098 Z M 485.75,65.535 h -10.062 c -1.981,0 -3.684,0.199 -5.11,0.594 -1.43,0.387 -2.601,0.937 -3.515,1.656 -0.907,0.719 -1.579,1.586 -2.016,2.594 -0.438,1 -0.656,2.133 -0.656,3.391 0,0.867 0.132,1.699 0.406,2.5 0.269,0.793 0.707,1.496 1.312,2.109 0.614,0.617 1.407,1.105 2.375,1.469 0.969,0.355 2.157,0.531 3.563,0.531 1.812,0 3.894,-0.547 6.25,-1.641 2.363,-1.093 4.848,-2.828 7.453,-5.203 z"
         style="fill:#191970;fill-opacity:1;fill-rule:nonzero;stroke:none"
         id="path20"
         inkscape:connector-curvature="0" /><path
         d="m 536.551,86.098 h -7.11 l -0.265,-7.297 c -1.367,1.562 -2.668,2.867 -3.906,3.906 -1.231,1.031 -2.454,1.867 -3.672,2.5 -1.211,0.625 -2.43,1.063 -3.657,1.313 -1.23,0.257 -2.527,0.39 -3.89,0.39 -4.719,0 -8.278,-1.363 -10.672,-4.094 -2.399,-2.726 -3.594,-6.851 -3.594,-12.375 V 40.91 h 7.922 v 28.891 c 0,6.937 2.645,10.406 7.938,10.406 0.968,0 1.914,-0.141 2.843,-0.422 0.926,-0.289 1.895,-0.785 2.907,-1.484 1.019,-0.707 2.113,-1.66 3.281,-2.86 1.176,-1.207 2.492,-2.726 3.953,-4.562 V 40.91 h 7.922 z"
         style="fill:#191970;fill-opacity:1;fill-rule:nonzero;stroke:none"
         id="path22"
         inkscape:connector-curvature="0" /><path
         d="m 578.555,73.77 c 0,1.585 -0.278,3.007 -0.828,4.265 -0.543,1.262 -1.289,2.383 -2.235,3.36 -0.937,0.98 -2.031,1.812 -3.281,2.5 -1.242,0.687 -2.57,1.261 -3.984,1.718 -1.407,0.45 -2.856,0.774 -4.344,0.985 -1.492,0.207 -2.949,0.312 -4.375,0.312 -3.094,0 -5.945,-0.137 -8.547,-0.406 -2.594,-0.274 -5.137,-0.707 -7.625,-1.313 v -7.187 c 2.664,0.75 5.32,1.32 7.969,1.703 2.644,0.387 5.273,0.578 7.89,0.578 3.789,0 6.598,-0.504 8.422,-1.515 1.821,-1.02 2.735,-2.477 2.735,-4.375 0,-0.813 -0.149,-1.54 -0.438,-2.188 -0.281,-0.644 -0.805,-1.258 -1.562,-1.844 -0.762,-0.582 -1.938,-1.187 -3.532,-1.812 -1.593,-0.633 -3.777,-1.36 -6.547,-2.172 -2.062,-0.594 -3.968,-1.27 -5.718,-2.031 -1.742,-0.77 -3.25,-1.68 -4.532,-2.735 -1.273,-1.05 -2.273,-2.281 -3,-3.687 -0.73,-1.406 -1.093,-3.071 -1.093,-5 0,-1.258 0.289,-2.641 0.875,-4.141 0.593,-1.5 1.601,-2.894 3.031,-4.187 1.437,-1.289 3.367,-2.364 5.797,-3.219 2.426,-0.852 5.461,-1.281 9.109,-1.281 1.789,0 3.781,0.101 5.969,0.297 2.187,0.199 4.469,0.539 6.844,1.015 v 6.969 c -2.492,-0.594 -4.856,-1.031 -7.094,-1.313 -2.231,-0.289 -4.168,-0.437 -5.813,-0.437 -1.968,0 -3.632,0.152 -4.984,0.453 -1.355,0.305 -2.449,0.715 -3.281,1.234 -0.836,0.524 -1.434,1.137 -1.797,1.844 -0.367,0.711 -0.547,1.465 -0.547,2.266 0,0.812 0.156,1.554 0.469,2.219 0.32,0.656 0.914,1.293 1.781,1.906 0.863,0.617 2.07,1.23 3.625,1.844 1.551,0.617 3.57,1.281 6.063,2 2.707,0.781 4.984,1.601 6.828,2.453 1.851,0.855 3.359,1.808 4.515,2.859 1.157,1.055 1.985,2.242 2.485,3.563 0.5,1.312 0.75,2.812 0.75,4.5 z"
         style="fill:#191970;fill-opacity:1;fill-rule:nonzero;stroke:none"
         id="path24"
         inkscape:connector-curvature="0" /><path
         d="m 621.746,85.473 c -1.793,0.449 -3.648,0.765 -5.562,0.953 -1.907,0.195 -3.852,0.297 -5.829,0.297 -5.742,0 -10.027,-1.282 -12.859,-3.844 -2.824,-2.563 -4.234,-6.5 -4.234,-11.813 V 47.488 H 580.465 V 40.91 h 12.797 V 28.488 l 7.937,-2.015 V 40.91 h 20.547 v 6.578 h -20.547 v 22.953 c 0,3.243 0.867,5.664 2.61,7.266 1.75,1.606 4.328,2.406 7.734,2.406 1.457,0 3.051,-0.109 4.781,-0.328 1.727,-0.226 3.535,-0.582 5.422,-1.062 z"
         style="fill:#191970;fill-opacity:1;fill-rule:nonzero;stroke:none"
         id="path26"
         inkscape:connector-curvature="0" /><path
         d="M 643.016,47.395 H 629.484 V 40.91 h 21.547 v 38.656 h 13.625 v 6.532 h -36.672 v -6.532 h 15.032 z m 2.781,-25.438 c 0.883,0 1.703,0.164 2.453,0.484 0.758,0.313 1.422,0.758 1.984,1.329 0.563,0.562 1.004,1.214 1.329,1.953 0.32,0.742 0.484,1.543 0.484,2.406 0,0.844 -0.164,1.641 -0.484,2.391 -0.325,0.75 -0.766,1.414 -1.329,1.984 -0.562,0.562 -1.226,1.008 -1.984,1.328 -0.75,0.313 -1.57,0.469 -2.453,0.469 -0.887,0 -1.711,-0.156 -2.469,-0.469 -0.75,-0.32 -1.406,-0.766 -1.969,-1.328 -0.562,-0.57 -1.007,-1.234 -1.328,-1.984 -0.324,-0.75 -0.484,-1.547 -0.484,-2.391 0,-0.863 0.16,-1.664 0.484,-2.406 0.321,-0.739 0.766,-1.391 1.328,-1.953 0.563,-0.571 1.219,-1.016 1.969,-1.329 0.758,-0.32 1.582,-0.484 2.469,-0.484 z"
         style="fill:#191970;fill-opacity:1;fill-rule:nonzero;stroke:none"
         id="path28"
         inkscape:connector-curvature="0" /><path
         d="m 665.688,40.91 h 9.031 l 11.203,29.891 2.422,7.281 2.5,-7.469 11.125,-29.703 h 8.703 l -17.953,45.188 h -9.11 z"
         style="fill:#191970;fill-opacity:1;fill-rule:nonzero;stroke:none"
         id="path30"
         inkscape:connector-curvature="0" /><path
         d="m 751.176,61.113 c 0,1.117 -0.016,2.047 -0.047,2.797 -0.031,0.75 -0.078,1.453 -0.141,2.11 h -32.125 c 0,4.625 1.305,8.179 3.922,10.656 2.613,2.469 6.379,3.703 11.297,3.703 1.332,0 2.664,-0.051 4,-0.156 1.344,-0.102 2.633,-0.243 3.875,-0.422 1.25,-0.188 2.441,-0.391 3.578,-0.61 1.145,-0.226 2.203,-0.476 3.172,-0.75 v 6.438 c -2.156,0.605 -4.594,1.094 -7.312,1.469 -2.719,0.375 -5.54,0.562 -8.454,0.562 -3.918,0 -7.289,-0.527 -10.109,-1.578 -2.824,-1.051 -5.141,-2.57 -6.953,-4.562 -1.813,-2 -3.152,-4.446 -4.016,-7.344 -0.867,-2.895 -1.297,-6.172 -1.297,-9.828 0,-3.188 0.461,-6.196 1.391,-9.032 0.926,-2.832 2.273,-5.32 4.047,-7.468 1.781,-2.145 3.961,-3.848 6.547,-5.11 2.582,-1.258 5.515,-1.89 8.797,-1.89 3.187,0 6.007,0.496 8.468,1.484 2.469,0.992 4.547,2.398 6.235,4.219 1.687,1.812 2.961,4.015 3.828,6.609 0.863,2.594 1.297,5.496 1.297,8.703 z m -8.25,-1.125 c 0.094,-2.008 -0.106,-3.843 -0.594,-5.5 -0.492,-1.664 -1.246,-3.097 -2.266,-4.297 -1.011,-1.207 -2.277,-2.144 -3.796,-2.812 -1.524,-0.676 -3.282,-1.016 -5.282,-1.016 -1.73,0 -3.312,0.328 -4.75,0.985 -1.429,0.656 -2.656,1.59 -3.687,2.797 -1.031,1.199 -1.867,2.636 -2.5,4.312 -0.637,1.68 -1.031,3.523 -1.188,5.531 z"
         style="fill:#191970;fill-opacity:1;fill-rule:nonzero;stroke:none"
         id="path32"
         inkscape:connector-curvature="0" /><path
         d="m 296.25,108.723 h 457.5 c 2.078,0 3.75,1.672 3.75,3.75 0,2.078 -1.672,3.75 -3.75,3.75 h -457.5 c -2.078,0 -3.75,-1.672 -3.75,-3.75 0,-2.078 1.672,-3.75 3.75,-3.75 z"
         style="fill:#191970;fill-opacity:1;fill-rule:nonzero;stroke:none"
         id="path34"
         inkscape:connector-curvature="0" /><path
         d="m 306.965,112.301 c 0,5.945 -4.953,10.762 -11.059,10.762 -6.105,0 -11.054,-4.817 -11.054,-10.762 0,-5.946 4.949,-10.766 11.054,-10.766 6.106,0 11.059,4.82 11.059,10.766 z"
         style="fill:#191970;fill-opacity:1;fill-rule:nonzero;stroke:none"
         id="path36"
         inkscape:connector-curvature="0" /><path
         d="m 367.164,178.824 c 0,2.793 -0.578,5.242 -1.734,7.344 -1.157,2.094 -2.774,3.84 -4.844,5.234 -2.063,1.399 -4.547,2.446 -7.453,3.141 -2.899,0.687 -6.09,1.031 -9.578,1.031 -1.586,0 -3.157,-0.062 -4.719,-0.187 -1.563,-0.117 -3.07,-0.266 -4.516,-0.453 -1.437,-0.176 -2.797,-0.383 -4.078,-0.625 -1.273,-0.239 -2.422,-0.493 -3.453,-0.766 v -7.734 c 2.27,0.836 4.828,1.496 7.672,1.984 2.844,0.48 6.07,0.719 9.687,0.719 2.614,0 4.836,-0.203 6.672,-0.61 1.844,-0.406 3.348,-1.004 4.516,-1.797 1.164,-0.8 2.016,-1.769 2.547,-2.906 0.531,-1.144 0.797,-2.453 0.797,-3.922 0,-1.593 -0.45,-2.953 -1.344,-4.078 -0.898,-1.125 -2.074,-2.125 -3.531,-3 -1.461,-0.883 -3.125,-1.695 -5,-2.437 -1.867,-0.739 -3.774,-1.492 -5.719,-2.266 -1.938,-0.781 -3.844,-1.629 -5.719,-2.547 -1.867,-0.914 -3.527,-1.992 -4.984,-3.234 -1.461,-1.25 -2.637,-2.711 -3.531,-4.391 -0.899,-1.687 -1.344,-3.687 -1.344,-6 0,-2.008 0.426,-3.988 1.281,-5.937 0.852,-1.946 2.176,-3.676 3.969,-5.188 1.789,-1.519 4.086,-2.742 6.89,-3.672 2.813,-0.925 6.165,-1.39 10.063,-1.39 1,0 2.082,0.047 3.25,0.14 1.176,0.086 2.363,0.211 3.562,0.375 1.196,0.157 2.379,0.344 3.547,0.563 1.176,0.211 2.266,0.433 3.266,0.672 v 7.203 c -2.344,-0.664 -4.688,-1.172 -7.031,-1.516 -2.336,-0.344 -4.594,-0.515 -6.782,-0.515 -4.648,0 -8.062,0.765 -10.25,2.296 -2.187,1.532 -3.281,3.59 -3.281,6.172 0,1.586 0.446,2.95 1.344,4.094 0.894,1.137 2.07,2.156 3.531,3.063 1.457,0.898 3.117,1.714 4.985,2.453 1.875,0.73 3.781,1.484 5.718,2.265 1.946,0.782 3.852,1.637 5.719,2.563 1.875,0.93 3.539,2.031 5,3.312 1.457,1.274 2.633,2.766 3.531,4.485 0.895,1.711 1.344,3.73 1.344,6.062 z"
         style="fill:#191970;fill-opacity:1;fill-rule:nonzero;stroke:none"
         id="path38"
         inkscape:connector-curvature="0" /><path
         d="m 410.215,169.777 c 0,1.118 -0.016,2.047 -0.047,2.797 -0.031,0.75 -0.078,1.453 -0.141,2.11 h -32.125 c 0,4.625 1.305,8.179 3.922,10.656 2.614,2.469 6.379,3.703 11.297,3.703 1.332,0 2.664,-0.051 4,-0.156 1.344,-0.102 2.633,-0.242 3.875,-0.422 1.25,-0.188 2.442,-0.391 3.578,-0.61 1.145,-0.226 2.203,-0.476 3.172,-0.75 v 6.438 c -2.156,0.605 -4.594,1.094 -7.312,1.469 -2.719,0.375 -5.539,0.562 -8.454,0.562 -3.917,0 -7.289,-0.527 -10.109,-1.578 -2.824,-1.051 -5.141,-2.57 -6.953,-4.562 -1.813,-2 -3.152,-4.446 -4.016,-7.344 -0.867,-2.895 -1.297,-6.172 -1.297,-9.828 0,-3.188 0.461,-6.196 1.391,-9.032 0.926,-2.832 2.274,-5.32 4.047,-7.468 1.781,-2.145 3.961,-3.848 6.547,-5.11 2.582,-1.257 5.515,-1.89 8.797,-1.89 3.187,0 6.008,0.496 8.468,1.484 2.469,0.992 4.547,2.399 6.235,4.219 1.687,1.812 2.961,4.015 3.828,6.609 0.863,2.594 1.297,5.496 1.297,8.703 z m -8.25,-1.125 c 0.094,-2.007 -0.106,-3.843 -0.594,-5.5 -0.492,-1.664 -1.246,-3.097 -2.266,-4.297 -1.011,-1.207 -2.277,-2.144 -3.796,-2.812 -1.524,-0.676 -3.282,-1.016 -5.282,-1.016 -1.73,0 -3.312,0.328 -4.75,0.985 -1.429,0.656 -2.656,1.59 -3.687,2.797 -1.031,1.199 -1.867,2.636 -2.5,4.312 -0.637,1.68 -1.031,3.524 -1.188,5.531 z"
         style="fill:#191970;fill-opacity:1;fill-rule:nonzero;stroke:none"
         id="path40"
         inkscape:connector-curvature="0" /><path
         d="m 443.516,194.762 -0.188,-6.078 c -2.492,2.429 -5.023,4.183 -7.594,5.265 -2.562,1.082 -5.257,1.625 -8.078,1.625 -2.617,0 -4.851,-0.328 -6.703,-0.984 -1.855,-0.664 -3.383,-1.578 -4.578,-2.735 -1.199,-1.156 -2.078,-2.507 -2.641,-4.062 -0.562,-1.563 -0.843,-3.258 -0.843,-5.094 0,-4.531 1.707,-8.078 5.125,-10.64 3.414,-2.563 8.468,-3.844 15.156,-3.844 h 9.469 v -3.969 c 0,-2.664 -0.868,-4.801 -2.594,-6.406 -1.731,-1.602 -4.371,-2.406 -7.922,-2.406 -2.586,0 -5.133,0.289 -7.641,0.859 -2.5,0.562 -5.089,1.371 -7.765,2.422 v -7.063 c 1,-0.363 2.113,-0.718 3.344,-1.062 1.226,-0.344 2.523,-0.649 3.89,-0.922 1.375,-0.27 2.805,-0.488 4.297,-0.656 1.488,-0.164 2.988,-0.25 4.5,-0.25 2.77,0 5.266,0.304 7.484,0.906 2.219,0.594 4.094,1.512 5.625,2.75 1.532,1.23 2.707,2.777 3.532,4.641 0.82,1.855 1.234,4.043 1.234,6.562 v 31.141 z m -0.875,-20.563 h -10.063 c -1.98,0 -3.683,0.199 -5.109,0.594 -1.43,0.387 -2.602,0.937 -3.516,1.656 -0.906,0.719 -1.578,1.586 -2.015,2.594 -0.438,1 -0.657,2.133 -0.657,3.391 0,0.867 0.133,1.699 0.407,2.5 0.269,0.793 0.707,1.496 1.312,2.109 0.613,0.617 1.406,1.105 2.375,1.469 0.969,0.355 2.156,0.531 3.563,0.531 1.812,0 3.894,-0.547 6.25,-1.641 2.363,-1.093 4.847,-2.828 7.453,-5.203 z"
         style="fill:#191970;fill-opacity:1;fill-rule:nonzero;stroke:none"
         id="path42"
         inkscape:connector-curvature="0" /><path
         d="m 458.535,149.574 h 7.25 l 0.235,8.328 c 2.695,-3.207 5.359,-5.531 7.984,-6.968 2.633,-1.446 5.285,-2.172 7.953,-2.172 4.738,0 8.332,1.515 10.781,4.547 2.446,3.031 3.578,7.531 3.391,13.5 h -8.016 c 0.094,-3.957 -0.492,-6.829 -1.75,-8.61 -1.261,-1.789 -3.109,-2.687 -5.547,-2.687 -1.062,0 -2.136,0.187 -3.218,0.562 -1.075,0.375 -2.18,0.981 -3.313,1.813 -1.137,0.824 -2.344,1.883 -3.625,3.172 -1.273,1.281 -2.637,2.839 -4.094,4.671 v 29.032 h -8.031 z"
         style="fill:#191970;fill-opacity:1;fill-rule:nonzero;stroke:none"
         id="path44"
         inkscape:connector-curvature="0" /><path
         d="m 534.773,193.09 c -2.074,0.781 -4.199,1.359 -6.375,1.734 -2.168,0.375 -4.406,0.563 -6.718,0.563 -7.231,0 -12.797,-1.93 -16.703,-5.797 -3.899,-3.875 -5.844,-9.531 -5.844,-16.969 0,-3.57 0.562,-6.812 1.687,-9.719 1.125,-2.914 2.703,-5.406 4.735,-7.468 2.031,-2.071 4.457,-3.672 7.281,-4.797 2.832,-1.125 5.953,-1.688 9.359,-1.688 2.364,0 4.578,0.168 6.641,0.5 2.07,0.324 4.051,0.86 5.937,1.61 v 7.468 c -1.98,-1.019 -3.996,-1.757 -6.046,-2.218 -2.055,-0.469 -4.172,-0.704 -6.36,-0.704 -2.031,0 -3.953,0.387 -5.765,1.157 -1.805,0.761 -3.391,1.859 -4.766,3.297 -1.367,1.437 -2.445,3.195 -3.234,5.265 -0.782,2.074 -1.172,4.418 -1.172,7.031 0,5.461 1.343,9.547 4.031,12.266 2.687,2.711 6.414,4.063 11.187,4.063 2.157,0 4.243,-0.239 6.266,-0.719 2.02,-0.477 3.973,-1.195 5.859,-2.156 z"
         style="fill:#191970;fill-opacity:1;fill-rule:nonzero;stroke:none"
         id="path46"
         inkscape:connector-curvature="0" /><path
         d="m 578.539,194.762 h -7.922 v -28.844 c 0,-3.477 -0.664,-6.082 -1.984,-7.813 -1.324,-1.726 -3.215,-2.593 -5.672,-2.593 -1.063,0 -2.059,0.148 -2.984,0.437 -0.93,0.281 -1.899,0.778 -2.907,1.485 -1,0.699 -2.093,1.652 -3.281,2.859 -1.18,1.199 -2.543,2.699 -4.094,4.5 v 29.969 h -7.922 v -63.594 h 7.922 v 18.406 l -0.265,7.11 c 1.238,-1.469 2.457,-2.704 3.656,-3.704 1.207,-1.007 2.41,-1.828 3.609,-2.453 1.196,-0.632 2.414,-1.086 3.657,-1.359 1.25,-0.27 2.539,-0.406 3.875,-0.406 4.562,0 8.086,1.375 10.578,4.125 2.488,2.742 3.734,6.871 3.734,12.39 z"
         style="fill:#191970;fill-opacity:1;fill-rule:nonzero;stroke:none"
         id="path48"
         inkscape:connector-curvature="0" /><path
         d="M 0,0 H 225 V 225 H 0 Z"
         style="fill:#eeeeee;fill-opacity:1;fill-rule:nonzero;stroke:none"
         id="path50"
         inkscape:connector-curvature="0" /><path
         d="M 0,0 H 225 V 225 H 0 Z"
         style="fill:#4876ff;fill-opacity:1;fill-rule:nonzero;stroke:none"
         id="path52"
         inkscape:connector-curvature="0" /><g
         id="g54"><path
           d="M 180,112.5 C 180,149.781 149.777,180 112.5,180 75.219,180 45,149.781 45,112.5 45,75.223 75.219,45 112.5,45 149.777,45 180,75.223 180,112.5 Z"
           style="fill:none;stroke:#fafafa;stroke-width:15;stroke-linecap:square;stroke-linejoin:round;stroke-miterlimit:4;stroke-dasharray:none;stroke-opacity:1"
           id="path56"
           inkscape:connector-curvature="0" /></g><path
         d="M 127.5,172.5 H 135 V 225 h -7.5 z"
         style="fill:#fafafa;fill-opacity:1;fill-rule:nonzero;stroke:none"
         id="path58"
         inkscape:connector-curvature="0" /><path
         d="M 172.5,90 H 225 v 7.5 h -52.5 z"
         style="fill:#fafafa;fill-opacity:1;fill-rule:nonzero;stroke:none"
         id="path60"
         inkscape:connector-curvature="0" /><path
         d="M 0,127.5 H 52.5 V 135 H 0 Z"
         style="fill:#fafafa;fill-opacity:1;fill-rule:nonzero;stroke:none"
         id="path62"
         inkscape:connector-curvature="0" /><path
         d="m 90,0 h 7.5 V 52.5 H 90 Z"
         style="fill:#fafafa;fill-opacity:1;fill-rule:nonzero;stroke:none"
         id="path64"
         inkscape:connector-curvature="0" /></g></g></svg>